<svg data-v-fde0c5aa="" xmlns="http://www.w3.org/2000/svg" viewBox="0 0 300 300" class="iconLeft"><!----><defs data-v-fde0c5aa=""><!----></defs><rect data-v-fde0c5aa="" fill="#FFFFFF" x="0" y="0" width="300px" height="300px" class="logo-background-square"></rect><defs data-v-fde0c5aa=""><!----></defs><g data-v-fde0c5aa="" id="d183ca01-0b92-4c08-a777-9f49d5a24cb5" fill="#250A05" transform="matrix(2.006374912213556,0,0,2.006374912213556,90.36098954826738,129.3945301681924)"><path d="M3.45 5.17L-0.12 5.17L-0.12 5.17Q1.01 4.25 1.20 4.25L1.20 4.25L8.91 4.25L8.91 4.25Q8.83 4.26 8.50 4.55L8.50 4.55L8.50 4.55Q8.17 4.83 8.04 4.94L8.04 4.94L8.04 4.94Q7.72 5.17 7.59 5.17L7.59 5.17L4.79 5.17L4.79 11.43L4.79 11.43Q4.79 12.26 4.50 12.80L4.50 12.80L4.50 12.80Q4.38 13.03 4.23 13.15L4.23 13.15L6.49 13.15L6.49 13.15Q6.39 13.17 6.06 13.45L6.06 13.45L6.06 13.45Q5.74 13.74 5.61 13.84L5.61 13.84L5.61 13.84Q5.29 14.08 5.15 14.08L5.15 14.08L2.78 14.08L2.78 14.08Q3.19 13.71 3.29 13.46L3.29 13.46L3.29 13.46Q3.45 13.06 3.45 12.45L3.45 12.45L3.45 5.17ZM12.99 12.82L12.99 12.82L12.99 12.82Q12.05 13.86 10.66 14.12L10.66 14.12L10.66 14.12Q10.34 14.18 9.87 14.18L9.87 14.18L9.87 14.18Q9.40 14.18 8.98 13.91L8.98 13.91L8.98 13.91Q8.57 13.65 8.30 13.23L8.30 13.23L8.30 13.23Q7.79 12.43 7.79 11.27L7.79 11.27L7.79 11.27Q7.79 10.50 8.38 9.57L8.38 9.57L8.38 9.57Q8.96 8.65 9.78 8.04L9.78 8.04L9.78 8.04Q10.67 7.38 11.46 7.38L11.46 7.38L11.46 7.38Q11.87 7.38 12.15 7.68L12.15 7.68L12.15 7.68Q12.41 7.98 12.41 8.35L12.41 8.35L12.41 8.35Q12.41 8.73 12.25 9.05L12.25 9.05L12.25 9.05Q12.09 9.37 11.82 9.67L11.82 9.67L11.82 9.67Q11.56 9.97 11.22 10.24L11.22 10.24L11.22 10.24Q10.88 10.52 10.53 10.76L10.53 10.76L10.53 10.76Q10.03 11.10 9.27 11.53L9.27 11.53L9.27 11.53Q9.49 12.36 10.04 12.81L10.04 12.81L10.04 12.81Q10.60 13.25 11.47 13.25L11.47 13.25L11.47 13.25Q12.21 13.25 12.99 12.82ZM10.92 10.08L10.92 10.08L10.92 10.08Q11.11 9.78 11.11 9.50L11.11 9.50L11.11 9.50Q11.11 9.22 11.05 9.03L11.05 9.03L11.05 9.03Q10.99 8.83 10.87 8.68L10.87 8.68L10.87 8.68Q10.60 8.34 10.18 8.34L10.18 8.34L10.18 8.34Q9.14 8.34 9.14 10.46L9.14 10.46L9.14 10.46Q9.14 10.83 9.20 11.20L9.20 11.20L9.20 11.20Q10.40 10.87 10.92 10.08ZM18.16 8.79L18.16 8.79L18.16 8.79Q18.30 8.65 18.30 8.59L18.30 8.59L18.30 8.59Q18.30 8.52 18.21 8.46L18.21 8.46L18.21 8.46Q18.12 8.39 17.97 8.34L17.97 8.34L17.97 8.34Q17.82 8.29 17.64 8.25L17.64 8.25L17.64 8.25Q17.47 8.20 17.30 8.18L17.30 8.18L17.30 8.18Q16.95 8.11 16.63 8.11L16.63 8.11L16.63 8.11Q16.31 8.11 15.98 8.30L15.98 8.30L15.98 8.30Q15.65 8.50 15.45 8.82L15.45 8.82L15.45 8.82Q15.10 9.39 15.10 10.21L15.10 10.21L15.10 10.21Q15.10 11.03 15.28 11.56L15.28 11.56L15.28 11.56Q15.46 12.09 15.80 12.47L15.80 12.47L15.80 12.47Q16.52 13.26 17.83 13.26L17.83 13.26L17.83 13.26Q18.66 13.26 19.39 12.85L19.39 12.85L19.39 12.85Q18.53 13.78 17.21 14.10L17.21 14.10L17.21 14.10Q16.80 14.19 16.29 14.19L16.29 14.19L16.29 14.19Q15.78 14.19 15.29 13.98L15.29 13.98L15.29 13.98Q14.80 13.77 14.46 13.39L14.46 13.39L14.46 13.39Q13.75 12.62 13.75 11.39L13.75 11.39L13.75 11.39Q13.75 10.39 14.44 9.38L14.44 9.38L14.44 9.38Q15.46 7.90 17.13 7.37L17.13 7.37L17.13 7.37Q17.65 7.20 18.07 7.20L18.07 7.20L18.07 7.20Q19.07 7.20 19.56 7.57L19.56 7.57L19.56 7.57Q19.62 7.61 19.62 7.68L19.62 7.68L19.62 7.68Q19.62 7.92 18.62 8.57L18.62 8.57L18.62 8.57Q18.27 8.79 18.16 8.79ZM22.11 10.53L22.11 12.59L22.11 12.59Q22.11 13.28 22.50 13.28L22.50 13.28L22.50 13.28Q22.64 13.28 22.92 13.16L22.92 13.16L22.92 13.16Q22.65 13.75 22.12 14.05L22.12 14.05L22.12 14.05Q21.85 14.21 21.54 14.19L21.54 14.19L21.54 14.19Q21.23 14.18 21.10 14.03L21.10 14.03L21.10 14.03Q20.97 13.88 20.89 13.67L20.89 13.67L20.89 13.67Q20.78 13.33 20.78 12.80L20.78 12.80L20.78 5.00L20.78 5.00Q20.78 4.27 20.53 4.03L20.53 4.03L20.53 4.03Q20.41 3.92 20.23 3.92L20.23 3.92L20.23 3.92Q19.94 3.92 19.59 4.02L19.59 4.02L19.59 4.02Q20.43 3.36 22.11 2.30L22.11 2.30L22.11 8.57L22.11 8.57Q22.96 7.82 23.86 7.55L23.86 7.55L23.86 7.55Q24.19 7.44 24.49 7.44L24.49 7.44L24.49 7.44Q24.80 7.44 25.08 7.54L25.08 7.54L25.08 7.54Q25.35 7.64 25.57 7.82L25.57 7.82L25.57 7.82Q26.06 8.22 26.06 8.83L26.06 8.83L26.06 12.30L26.06 12.30Q26.06 13.21 26.50 13.30L26.50 13.30L26.50 13.30Q26.62 13.33 26.76 13.33L26.76 13.33L26.76 13.33Q26.97 13.33 27.35 13.16L27.35 13.16L27.35 13.16Q26.78 13.88 26.03 14.11L26.03 14.11L26.03 14.11Q25.77 14.19 25.47 14.19L25.47 14.19L25.47 14.19Q25.18 14.19 25.01 14.05L25.01 14.05L25.01 14.05Q24.85 13.90 24.79 13.69L24.79 13.69L24.79 13.69Q24.73 13.47 24.73 13.21L24.73 13.21L24.73 10.14L24.73 10.14Q24.73 9.10 24.40 8.74L24.40 8.74L24.40 8.74Q24.11 8.39 23.32 8.39L23.32 8.39L23.32 8.39Q22.26 8.39 22.13 9.84L22.13 9.84L22.13 9.84Q22.11 10.21 22.11 10.53L22.11 10.53ZM31.86 13.16L31.86 13.16L31.86 13.16Q31.90 13.15 32.40 13.15L32.40 13.15L32.40 13.15Q33.26 13.15 33.66 13.02L33.66 13.02L33.66 13.02Q34.07 12.89 34.25 12.78L34.25 12.78L34.25 12.78Q34.00 12.97 33.78 13.14L33.78 13.14L33.78 13.14Q33.33 13.49 33.05 13.65L33.05 13.65L33.05 13.65Q32.77 13.81 32.50 13.89L32.50 13.89L32.50 13.89Q32.22 13.98 31.94 14.02L31.94 14.02L31.94 14.02Q31.51 14.08 30.78 14.08L30.78 14.08L30.52 14.08L30.52 14.08Q30.52 14.08 30.53 14.07L30.53 14.07L30.53 14.07Q30.53 14.06 30.62 13.96L30.62 13.96L30.62 13.96Q30.71 13.86 30.89 13.66L30.89 13.66L30.89 13.66Q31.07 13.47 31.36 13.08L31.36 13.08L31.36 13.08Q31.66 12.69 32.00 12.07L32.00 12.07L32.00 12.07Q32.35 11.46 32.65 10.82L32.65 10.82L32.65 10.82Q32.94 10.18 33.22 9.52L33.22 9.52L33.22 9.52Q33.49 8.87 33.78 8.21L33.78 8.21L33.78 8.21Q34.07 7.55 34.37 6.87L34.37 6.87L34.37 6.87Q34.67 6.20 34.83 5.82L34.83 5.82L34.83 5.82Q34.98 5.43 35.00 5.34L35.00 5.34L35.00 5.34Q35.03 5.24 35.08 5.17L35.08 5.17L34.56 5.17L34.56 5.17Q33.29 5.17 32.59 5.46L32.59 5.46L32.59 5.46Q33.53 4.64 34.17 4.43L34.17 4.43L34.17 4.43Q34.75 4.25 36.05 4.25L36.05 4.25L36.42 4.25L36.42 4.25Q36.71 5.22 37.01 6.23L37.01 6.23L37.01 6.23Q37.30 7.23 37.60 8.24L37.60 8.24L37.60 8.24Q38.26 10.42 38.59 11.41L38.59 11.41L38.59 11.41Q38.92 12.39 38.98 12.58L38.98 12.58L38.98 12.58Q39.04 12.77 39.13 12.92L39.13 12.92L39.13 12.92Q39.33 13.25 39.76 13.25L39.76 13.25L39.76 13.25Q40.00 13.25 40.27 13.14L40.27 13.14L40.27 13.14Q40.53 13.03 40.67 12.94L40.67 12.94L40.67 12.94Q40.43 13.13 40.24 13.28L40.24 13.28L40.24 13.28Q39.74 13.65 39.61 13.74L39.61 13.74L39.61 13.74Q39.47 13.82 39.33 13.90L39.33 13.90L39.33 13.90Q39.20 13.99 39.05 14.05L39.05 14.05L39.05 14.05Q38.09 14.48 37.75 13.73L37.75 13.73L37.75 13.73Q37.52 13.21 37.18 12.05L37.18 12.05L37.18 12.05Q36.85 10.89 36.59 10.08L36.59 10.08L36.59 10.08Q36.01 10.49 34.08 10.46L34.08 10.46L34.08 10.46Q33.84 10.46 33.66 10.46L33.66 10.46L33.66 10.46Q32.89 12.00 32.16 12.82L32.16 12.82L32.16 12.82Q32.09 12.89 32.03 12.96L32.03 12.96L32.03 12.96Q31.86 13.17 31.86 13.16ZM34.19 9.51L34.19 9.51L35.55 9.54L35.55 9.54Q35.97 9.54 36.41 9.51L36.41 9.51L36.41 9.51Q36.09 8.51 35.47 6.45L35.47 6.45L35.47 6.45Q34.79 8.00 34.10 9.53L34.10 9.53L34.10 9.53Q34.18 9.51 34.19 9.51ZM45.18 8.79L45.18 8.79L45.18 8.79Q45.32 8.65 45.32 8.59L45.32 8.59L45.32 8.59Q45.32 8.52 45.22 8.46L45.22 8.46L45.22 8.46Q45.13 8.39 44.98 8.34L44.98 8.34L44.98 8.34Q44.84 8.29 44.66 8.25L44.66 8.25L44.66 8.25Q44.48 8.20 44.32 8.18L44.32 8.18L44.32 8.18Q43.97 8.11 43.65 8.11L43.65 8.11L43.65 8.11Q43.33 8.11 42.99 8.30L42.99 8.30L42.99 8.30Q42.66 8.50 42.46 8.82L42.46 8.82L42.46 8.82Q42.12 9.39 42.12 10.21L42.12 10.21L42.12 10.21Q42.12 11.03 42.29 11.56L42.29 11.56L42.29 11.56Q42.47 12.09 42.81 12.47L42.81 12.47L42.81 12.47Q43.53 13.26 44.84 13.26L44.84 13.26L44.84 13.26Q45.67 13.26 46.41 12.85L46.41 12.85L46.41 12.85Q45.55 13.78 44.23 14.10L44.23 14.10L44.23 14.10Q43.81 14.19 43.31 14.19L43.31 14.19L43.31 14.19Q42.80 14.19 42.31 13.98L42.31 13.98L42.31 13.98Q41.82 13.77 41.47 13.39L41.47 13.39L41.47 13.39Q40.77 12.62 40.77 11.39L40.77 11.39L40.77 11.39Q40.77 10.39 41.46 9.38L41.46 9.38L41.46 9.38Q42.48 7.90 44.15 7.37L44.15 7.37L44.15 7.37Q44.67 7.20 45.09 7.20L45.09 7.20L45.09 7.20Q46.09 7.20 46.58 7.57L46.58 7.57L46.58 7.57Q46.63 7.61 46.63 7.68L46.63 7.68L46.63 7.68Q46.63 7.92 45.64 8.57L45.64 8.57L45.64 8.57Q45.28 8.79 45.18 8.79ZM51.89 9.28L51.89 12.06L51.88 12.54L51.88 12.54Q51.88 13.07 52.18 13.21L52.18 13.21L52.18 13.21Q52.29 13.27 52.45 13.27L52.45 13.27L52.45 13.27Q52.68 13.27 52.94 13.16L52.94 13.16L52.94 13.16Q52.68 13.27 52.49 13.45L52.49 13.45L52.49 13.45Q52.29 13.62 52.10 13.79L52.10 13.79L52.10 13.79Q51.60 14.21 51.11 14.21L51.11 14.21L51.11 14.21Q50.61 14.21 50.57 13.63L50.57 13.63L50.57 13.63Q50.56 13.48 50.56 13.33L50.56 13.33L50.56 13.33Q49.33 14.18 48.30 14.18L48.30 14.18L48.30 14.18Q47.43 14.18 47.10 13.66L47.10 13.66L47.10 13.66Q46.98 13.47 46.98 13.13L46.98 13.13L46.98 13.13Q46.98 12.80 47.18 12.46L47.18 12.46L47.18 12.46Q47.39 12.12 47.70 11.84L47.70 11.84L47.70 11.84Q48.26 11.32 49.05 10.99L49.05 10.99L49.05 10.99Q49.64 10.73 50.57 10.70L50.57 10.70L50.57 10.40L50.57 10.40Q50.57 9.31 50.37 8.93L50.37 8.93L50.37 8.93Q50.17 8.54 49.85 8.36L49.85 8.36L49.85 8.36Q49.54 8.18 49.12 8.18L49.12 8.18L49.12 8.18Q48.40 8.18 47.85 8.46L47.85 8.46L47.85 8.46Q48.60 7.84 48.95 7.64L48.95 7.64L48.95 7.64Q49.67 7.24 50.25 7.24L50.25 7.24L50.25 7.24Q50.84 7.24 51.13 7.41L51.13 7.41L51.13 7.41Q51.43 7.58 51.60 7.86L51.60 7.86L51.60 7.86Q51.89 8.35 51.89 9.28L51.89 9.28ZM48.68 13.04L48.68 13.04L48.68 13.04Q48.84 13.16 49.06 13.21L49.06 13.21L49.06 13.21Q49.28 13.27 49.71 13.27L49.71 13.27L49.71 13.27Q50.14 13.27 50.57 13.06L50.57 13.06L50.57 11.63L49.46 11.63L49.46 11.63Q48.86 11.63 48.42 11.71L48.42 11.71L48.42 11.71Q48.33 12.00 48.33 12.27L48.33 12.27L48.33 12.27Q48.33 12.54 48.42 12.73L48.42 12.73L48.42 12.73Q48.51 12.92 48.68 13.04ZM55.88 7.86L55.88 7.86Q56.36 7.59 56.89 7.45L56.89 7.45L56.89 7.45Q57.42 7.30 57.78 7.30L57.78 7.30L57.78 7.30Q58.14 7.30 58.41 7.35L58.41 7.35L58.41 5.11L58.41 5.11Q58.41 4.38 58.15 4.14L58.15 4.14L58.15 4.14Q58.02 4.03 57.85 4.03L57.85 4.03L57.85 4.03Q57.63 4.03 57.22 4.13L57.22 4.13L57.22 4.13Q58.94 2.82 59.74 2.41L59.74 2.41L59.74 12.19L59.74 12.19Q59.74 12.74 59.86 12.92L59.86 12.92L59.86 12.92Q60.06 13.26 60.57 13.26L60.57 13.26L60.57 13.26Q60.77 13.26 60.97 13.22L60.97 13.22L60.97 13.22Q60.77 13.38 60.58 13.55L60.58 13.55L60.58 13.55Q60.38 13.72 60.17 13.86L60.17 13.86L60.17 13.86Q59.68 14.19 59.32 14.19L59.32 14.19L59.32 14.19Q58.95 14.19 58.79 14.12L58.79 14.12L58.79 14.12Q58.63 14.05 58.54 13.92L58.54 13.92L58.54 13.92Q58.40 13.73 58.40 13.18L58.40 13.18L58.40 13.18Q57.00 14.22 56.15 14.22L56.15 14.22L56.15 14.22Q54.90 14.22 54.24 13.38L54.24 13.38L54.24 13.38Q53.62 12.62 53.62 11.33L53.62 11.33L53.62 11.33Q53.62 10.28 54.28 9.32L54.28 9.32L54.28 9.32Q54.89 8.42 55.88 7.86L55.88 7.86ZM58.41 12.60L58.41 9.21L58.41 9.21Q58.11 8.72 57.61 8.47L57.61 8.47L57.61 8.47Q57.12 8.22 56.59 8.22L56.59 8.22L56.59 8.22Q56.05 8.22 55.74 8.40L55.74 8.40L55.74 8.40Q55.43 8.58 55.25 8.88L55.25 8.88L55.25 8.88Q54.94 9.40 54.94 10.18L54.94 10.18L54.94 10.18Q54.94 10.96 55.08 11.49L55.08 11.49L55.08 11.49Q55.21 12.02 55.51 12.43L55.51 12.43L55.51 12.43Q56.15 13.30 57.39 13.30L57.39 13.30L57.39 13.30Q57.65 13.30 57.91 13.14L57.91 13.14L57.91 13.14Q58.41 12.85 58.41 12.60L58.41 12.60ZM66.83 12.82L66.83 12.82L66.83 12.82Q65.89 13.86 64.50 14.12L64.50 14.12L64.50 14.12Q64.18 14.18 63.71 14.18L63.71 14.18L63.71 14.18Q63.24 14.18 62.82 13.91L62.82 13.91L62.82 13.91Q62.41 13.65 62.14 13.23L62.14 13.23L62.14 13.23Q61.63 12.43 61.63 11.27L61.63 11.27L61.63 11.27Q61.63 10.50 62.22 9.57L62.22 9.57L62.22 9.57Q62.79 8.65 63.62 8.04L63.62 8.04L63.62 8.04Q64.51 7.38 65.30 7.38L65.30 7.38L65.30 7.38Q65.71 7.38 65.99 7.68L65.99 7.68L65.99 7.68Q66.25 7.98 66.25 8.35L66.25 8.35L66.25 8.35Q66.25 8.73 66.09 9.05L66.09 9.05L66.09 9.05Q65.93 9.37 65.66 9.67L65.66 9.67L65.66 9.67Q65.40 9.97 65.06 10.24L65.06 10.24L65.06 10.24Q64.72 10.52 64.37 10.76L64.37 10.76L64.37 10.76Q63.87 11.10 63.11 11.53L63.11 11.53L63.11 11.53Q63.33 12.36 63.88 12.81L63.88 12.81L63.88 12.81Q64.44 13.25 65.31 13.25L65.31 13.25L65.31 13.25Q66.05 13.25 66.83 12.82ZM64.76 10.08L64.76 10.08L64.76 10.08Q64.95 9.78 64.95 9.50L64.95 9.50L64.95 9.50Q64.95 9.22 64.89 9.03L64.89 9.03L64.89 9.03Q64.83 8.83 64.71 8.68L64.71 8.68L64.71 8.68Q64.44 8.34 64.02 8.34L64.02 8.34L64.02 8.34Q62.98 8.34 62.98 10.46L62.98 10.46L62.98 10.46Q62.98 10.83 63.04 11.20L63.04 11.20L63.04 11.20Q64.24 10.87 64.76 10.08ZM73.14 8.61L73.14 8.61L73.14 8.61Q74.66 7.44 75.45 7.44L75.45 7.44L75.45 7.44Q75.98 7.44 76.29 7.89L76.29 7.89L76.29 7.89Q76.56 8.26 76.56 8.83L76.56 8.83L76.56 12.09L76.56 12.09Q76.56 12.71 76.63 12.90L76.63 12.90L76.63 12.90Q76.79 13.26 77.33 13.26L77.33 13.26L77.33 13.26Q77.60 13.26 77.85 13.16L77.85 13.16L77.85 13.16Q77.24 13.69 77.01 13.84L77.01 13.84L77.01 13.84Q76.47 14.18 76.07 14.18L76.07 14.18L76.07 14.18Q75.67 14.18 75.51 14.04L75.51 14.04L75.51 14.04Q75.34 13.90 75.27 13.69L75.27 13.69L75.27 13.69Q75.20 13.45 75.20 12.70L75.20 12.70L75.20 10.12L75.20 10.12Q75.20 9.37 75.06 9.05L75.06 9.05L75.06 9.05Q74.92 8.72 74.71 8.56L74.71 8.56L74.71 8.56Q74.50 8.39 74.23 8.39L74.23 8.39L74.23 8.39Q73.95 8.39 73.80 8.48L73.80 8.48L73.80 8.48Q73.65 8.56 73.54 8.69L73.54 8.69L73.54 8.69Q73.13 9.17 73.13 10.26L73.13 10.26L73.13 12.20L73.13 12.20Q73.13 12.71 73.24 12.90L73.24 12.90L73.24 12.90Q73.45 13.26 73.92 13.26L73.92 13.26L73.92 13.26Q74.20 13.26 74.44 13.16L74.44 13.16L74.44 13.16Q73.83 13.69 73.60 13.84L73.60 13.84L73.60 13.84Q73.07 14.18 72.67 14.18L72.67 14.18L72.67 14.18Q72.27 14.18 72.10 14.04L72.10 14.04L72.10 14.04Q71.93 13.90 71.87 13.69L71.87 13.69L71.87 13.69Q71.79 13.45 71.79 12.70L71.79 12.70L71.79 10.12L71.79 10.12Q71.79 9.37 71.65 9.05L71.65 9.05L71.65 9.05Q71.51 8.72 71.31 8.56L71.31 8.56L71.31 8.56Q71.10 8.39 70.81 8.39L70.81 8.39L70.81 8.39Q70.53 8.39 70.37 8.50L70.37 8.50L70.37 8.50Q70.21 8.61 70.10 8.79L70.10 8.79L70.10 8.79Q69.99 8.98 69.92 9.20L69.92 9.20L69.92 9.20Q69.85 9.43 69.81 9.67L69.81 9.67L69.81 9.67Q69.75 10.08 69.75 10.53L69.75 10.53L69.75 12.64L69.75 12.64Q69.75 13.08 70.01 13.23L70.01 13.23L70.01 13.23Q70.11 13.30 70.25 13.30L70.25 13.30L70.25 13.30Q70.40 13.30 70.55 13.23L70.55 13.23L70.55 13.23Q69.77 13.90 69.45 14.06L69.45 14.06L69.45 14.06Q69.13 14.22 68.93 14.22L68.93 14.22L68.93 14.22Q68.41 14.22 68.41 13.62L68.41 13.62L68.41 9.68L68.41 9.68Q68.41 9.44 68.42 9.20L68.42 9.20L68.42 9.20Q68.43 8.96 68.37 8.76L68.37 8.76L68.37 8.76Q68.24 8.33 67.63 8.33L67.63 8.33L67.63 8.33Q67.33 8.33 67.04 8.44L67.04 8.44L67.04 8.44Q67.22 8.38 67.50 8.12L67.50 8.12L67.50 8.12Q68.04 7.63 68.26 7.55L68.26 7.55L68.26 7.55Q68.69 7.39 68.99 7.39L68.99 7.39L68.99 7.39Q69.29 7.39 69.44 7.50L69.44 7.50L69.44 7.50Q69.60 7.61 69.67 7.78L69.67 7.78L69.67 7.78Q69.75 7.99 69.75 8.60L69.75 8.60L69.75 8.60Q70.64 7.90 71.47 7.57L71.47 7.57L71.47 7.57Q71.78 7.44 72.04 7.44L72.04 7.44L72.04 7.44Q72.29 7.44 72.48 7.54L72.48 7.54L72.48 7.54Q72.68 7.64 72.82 7.80L72.82 7.80L72.82 7.80Q73.10 8.13 73.14 8.61ZM83.21 12.63L83.21 9.21L83.21 9.21Q83.21 8.34 82.72 8.34L82.72 8.34L82.72 8.34Q82.56 8.34 82.41 8.41L82.41 8.41L82.41 8.41Q83.18 7.75 83.51 7.58L83.51 7.58L83.51 7.58Q83.84 7.42 84.06 7.42L84.06 7.42L84.06 7.42Q84.29 7.42 84.42 7.58L84.42 7.58L84.42 7.58Q84.55 7.74 84.55 7.98L84.55 7.98L84.55 12.02L84.55 12.02Q84.55 14.31 83.42 16.15L83.42 16.15L83.42 16.15Q82.63 17.42 81.34 17.96L81.34 17.96L81.34 17.96Q80.69 18.24 79.90 18.24L79.90 18.24L79.90 18.24Q79.22 18.24 78.83 17.94L78.83 17.94L78.83 17.94Q78.69 17.82 78.69 17.69L78.69 17.69L78.69 17.69Q78.69 17.55 78.78 17.44L78.78 17.44L78.78 17.44Q78.87 17.33 79.00 17.22L79.00 17.22L79.00 17.22Q79.14 17.10 79.31 16.99L79.31 16.99L79.31 16.99Q79.48 16.88 79.65 16.79L79.65 16.79L79.65 16.79Q80.06 16.54 80.17 16.44L80.17 16.44L80.17 16.44Q80.00 16.58 80.00 16.74L80.00 16.74L80.00 16.74Q80.00 16.90 80.16 17.01L80.16 17.01L80.16 17.01Q80.32 17.12 80.52 17.19L80.52 17.19L80.52 17.19Q80.92 17.32 81.34 17.32L81.34 17.32L81.34 17.32Q81.77 17.32 82.10 17.10L82.10 17.10L82.10 17.10Q82.43 16.88 82.65 16.51L82.65 16.51L82.65 16.51Q82.86 16.15 82.97 15.69L82.97 15.69L82.97 15.69Q83.08 15.22 83.13 14.75L83.13 14.75L83.13 14.75Q83.19 14.25 83.21 13.04L83.21 13.04L83.21 13.04Q81.69 14.21 80.57 14.21L80.57 14.21L80.57 14.21Q79.79 14.21 79.39 13.70L79.39 13.70L79.39 13.70Q79.04 13.24 79.04 12.44L79.04 12.44L79.04 9.69L79.04 9.69Q79.04 8.31 78.24 8.31L78.24 8.31L78.24 8.31Q77.99 8.31 77.76 8.41L77.76 8.41L77.76 8.41Q78.58 7.68 79.11 7.46L79.11 7.46L79.11 7.46Q79.37 7.37 79.63 7.37L79.63 7.37L79.63 7.37Q79.89 7.37 80.04 7.47L80.04 7.47L80.04 7.47Q80.19 7.57 80.27 7.72L80.27 7.72L80.27 7.72Q80.38 7.98 80.38 8.49L80.38 8.49L80.38 11.32L80.38 11.32Q80.38 12.29 80.73 12.75L80.73 12.75L80.73 12.75Q81.14 13.28 82.06 13.28L82.06 13.28L82.06 13.28Q82.39 13.28 82.71 13.09L82.71 13.09L82.71 13.09Q83.03 12.91 83.21 12.63L83.21 12.63Z"></path></g><defs data-v-fde0c5aa=""><!----></defs><g data-v-fde0c5aa="" id="f5b2b05b-1d33-48ed-b39a-1ce1af3cd674" stroke="none" fill="#EC5242" transform="matrix(0.4904503609126605,0,0,0.4904503609126605,33.63248306155875,125.52333819500559)"><g clip-rule="evenodd"><path d="M12.983 10.59l17.018 88.223-5.872-59.049 29.021-1.892-.054-9.883L64.549 1 53.622 18.977z"></path><path d="M59.389 54.548l5.16-53.541-8.74 39.716-19.612 1.045 1.57 20.462-7.766 36.583 12.057-39.899z"></path><path d="M62.8 67.182l.549-10.453-15.979 3.755-.032 11.797-17.337 26.532 21.68-27.616zM65.711 62.394l14.841-4.731 1.509-12.532-15.899 2.095zM72.07 44.502l10.988-1.417 1.581-10.278-8.079-.373L64.549 1l8.43 30.967z"></path><path d="M87.413 31.294l1.256-9.506-9.544-2.694L64.549 1l14.483 22.437-.422 7z"></path></g></g><!----></svg>